<mxfile host="app.diagrams.net" modified="2022-09-28T10:30:05.917Z" agent="5.0 (Windows NT 10.0; Win64; x64) AppleWebKit/537.36 (KHTML, like Gecko) Chrome/104.0.5112.102 Safari/537.36 OPR/90.0.4480.117" etag="db_utZjdjp4sBdxZHS8i" version="20.3.6" type="github">
  <diagram id="21FU1EyPPhtnB7x6T-I3" name="Page-1">
    <mxGraphModel dx="1381" dy="774" grid="1" gridSize="10" guides="1" tooltips="1" connect="1" arrows="1" fold="1" page="1" pageScale="1" pageWidth="850" pageHeight="1100" math="0" shadow="0">
      <root>
        <mxCell id="0" />
        <mxCell id="1" parent="0" />
        <mxCell id="ePKvqicKysWFTNuMnLlp-1" value="Profesor" style="rounded=0;whiteSpace=wrap;html=1;fillColor=#d5e8d4;strokeColor=#82b366;" vertex="1" parent="1">
          <mxGeometry x="80" y="130" width="120" height="60" as="geometry" />
        </mxCell>
        <mxCell id="ePKvqicKysWFTNuMnLlp-2" value="Alumno" style="rounded=0;whiteSpace=wrap;html=1;fillColor=#d5e8d4;strokeColor=#82b366;" vertex="1" parent="1">
          <mxGeometry x="400" y="130" width="120" height="60" as="geometry" />
        </mxCell>
        <mxCell id="ePKvqicKysWFTNuMnLlp-3" style="edgeStyle=orthogonalEdgeStyle;rounded=0;orthogonalLoop=1;jettySize=auto;html=1;exitX=1;exitY=0.5;exitDx=0;exitDy=0;strokeColor=#000000;fontColor=#FF0080;" edge="1" parent="1" source="ePKvqicKysWFTNuMnLlp-4" target="ePKvqicKysWFTNuMnLlp-2">
          <mxGeometry relative="1" as="geometry" />
        </mxCell>
        <mxCell id="ePKvqicKysWFTNuMnLlp-4" value="dar clase" style="rhombus;whiteSpace=wrap;html=1;fillColor=#e1d5e7;strokeColor=#9673a6;" vertex="1" parent="1">
          <mxGeometry x="260" y="120" width="80" height="80" as="geometry" />
        </mxCell>
        <mxCell id="ePKvqicKysWFTNuMnLlp-5" value="1:1" style="text;html=1;align=center;verticalAlign=middle;whiteSpace=wrap;rounded=0;fontColor=#FF0080;" vertex="1" parent="1">
          <mxGeometry x="200" y="130" width="60" height="30" as="geometry" />
        </mxCell>
        <mxCell id="ePKvqicKysWFTNuMnLlp-6" value="&lt;font color=&quot;#FF0080&quot;&gt;1:N&lt;/font&gt;" style="text;html=1;align=center;verticalAlign=middle;whiteSpace=wrap;rounded=0;" vertex="1" parent="1">
          <mxGeometry x="340" y="130" width="60" height="30" as="geometry" />
        </mxCell>
        <mxCell id="ePKvqicKysWFTNuMnLlp-7" style="edgeStyle=orthogonalEdgeStyle;rounded=0;orthogonalLoop=1;jettySize=auto;html=1;exitX=0.5;exitY=1;exitDx=0;exitDy=0;entryX=0.5;entryY=0;entryDx=0;entryDy=0;strokeColor=#000000;fontColor=#FF0080;" edge="1" parent="1" source="ePKvqicKysWFTNuMnLlp-8" target="ePKvqicKysWFTNuMnLlp-4">
          <mxGeometry relative="1" as="geometry" />
        </mxCell>
        <mxCell id="ePKvqicKysWFTNuMnLlp-8" value="&lt;div&gt;1:N&lt;/div&gt;" style="text;html=1;align=center;verticalAlign=middle;whiteSpace=wrap;rounded=0;fontColor=#FF0080;" vertex="1" parent="1">
          <mxGeometry x="270" y="90" width="60" height="30" as="geometry" />
        </mxCell>
        <mxCell id="ePKvqicKysWFTNuMnLlp-9" value="" style="endArrow=none;html=1;rounded=0;entryX=0;entryY=0.5;entryDx=0;entryDy=0;exitX=1;exitY=0.5;exitDx=0;exitDy=0;" edge="1" parent="1" source="ePKvqicKysWFTNuMnLlp-1" target="ePKvqicKysWFTNuMnLlp-4">
          <mxGeometry width="50" height="50" relative="1" as="geometry">
            <mxPoint x="270" y="100" as="sourcePoint" />
            <mxPoint x="250" y="110" as="targetPoint" />
          </mxGeometry>
        </mxCell>
      </root>
    </mxGraphModel>
  </diagram>
</mxfile>
